<svg width="416" height="308" viewBox="0 0 416 308" fill="none" xmlns="http://www.w3.org/2000/svg">
<path fill-rule="evenodd" clip-rule="evenodd" d="M414.105 78.5231C422.153 100.792 402.438 130.519 364.655 159.635C361.689 242.077 293.921 308 210.756 308C165.814 308 125.369 288.749 97.2164 258.044C46.6586 260.838 10.1381 250.67 1.78053 227.546C-6.68303 204.128 15.5557 172.462 57.2216 141.933C63.3768 62.521 129.765 1.80109e-05 210.756 2.15511e-05C241.239 2.28836e-05 269.654 8.85688 293.567 24.1376C286.536 25.8612 215.595 43.6032 175.132 67.5C147.188 84.0038 127.632 98.5 106.132 122C85.4137 144.646 78.1322 166 85.6322 193C92.583 218.023 113.399 228.995 139.132 232.5C168.214 236.461 191.543 230.954 220.156 224.199L221 224C253.965 216.219 303.632 193 303.632 193C303.632 193 313.052 186.546 316.632 180L316.646 179.975C320.076 173.705 322.603 169.085 321.132 162C318.16 147.681 313.514 139.052 307.065 127.075C305.633 124.415 304.112 121.59 302.5 118.5C302.113 117.759 301.743 117.014 301.377 116.279C298.96 111.423 296.759 107 291.632 107C282.632 107 269.5 111 269.5 111C269.5 111 250.5 115 237.5 123C234.5 124.846 229.645 133.776 232.632 140C235.374 145.713 240.333 148.279 247 146.5C256.368 144 273.632 140 273.632 140L282.632 162L225.132 180C225.132 180 172.132 183.5 163.132 166C163.103 165.944 163.05 165.856 162.979 165.737C161.367 163.053 150.2 144.466 185.632 109.5C223.632 72 324 48 324 48C324 48 323.919 47.9251 323.767 47.7852C371.673 45.9353 406.031 56.1835 414.105 78.5231Z" fill="url(#paint0_linear_5_8)"/>
<defs>
<linearGradient id="paint0_linear_5_8" x1="190" y1="308" x2="264.5" y2="6.28983e-09" gradientUnits="userSpaceOnUse">
<stop offset="0.0159267" stop-color="#4C2A1F"/>
<stop offset="1" stop-color="#D17431"/>
</linearGradient>
</defs>
</svg>
